<?xml version="1.0" encoding="UTF-8"?>
<svg id="Layer_1" data-name="Layer 1" xmlns="http://www.w3.org/2000/svg" viewBox="0 0 60 59.99">
  <defs>
    <style>
      .cls-1 {
        stroke-width: 0px;
      }
    </style>
  </defs>
  <path class="cls-1" d="m10,55.25v4.74h2v-5c0-.17-.04-.34-.13-.49L2.88,38.32c-.58-1.04-.88-2.21-.88-3.4V15.99c0-1.1.9-2,2-2s2,.9,2,2v14.35c-1.25,1.45-1.22,3.61.07,5.03l8.19,9.01,1.48-1.35-8.19-9.01c-.65-.72-.63-1.82.06-2.51.36-.35.84-.54,1.33-.53.5.01.97.23,1.3.6l7.02,7.8c.09.09.19.17.3.23,3.98,2.28,6.44,6.51,6.44,11.1v9.27h2v-10h-.02c-.26-5-3.02-9.53-7.34-12.06l-6.91-7.67c-.7-.78-1.69-1.24-2.74-1.26-.33,0-.67.03-.99.12v-13.12c0-2.21-1.79-4-4-4S0,13.78,0,15.99v18.93c0,1.53.39,3.03,1.13,4.37l8.87,15.96Z"/>
  <path class="cls-1" d="m56,11.99c-2.21,0-4,1.79-4,4v13.12c-1.36-.35-2.8.09-3.73,1.15l-6.9,7.67c-4.33,2.52-7.09,7.06-7.34,12.06h-.02v10h2v-9.27c.01-4.6,2.49-8.85,6.49-11.13.1-.05.18-.12.26-.2l7.01-7.8c.33-.37.8-.59,1.3-.6.5-.01.98.18,1.33.53.69.69.71,1.79.06,2.51l-8.19,9.01,1.48,1.35,8.19-9.01c1.29-1.42,1.32-3.58.07-5.03v-14.35c0-1.1.9-2,2-2s2,.9,2,2v18.82c0,1.26-.34,2.49-.98,3.57l-8.9,16.12c-.08.15-.12.31-.12.48v5h2v-4.74l8.76-15.87c.81-1.38,1.24-2.96,1.24-4.56V15.99c0-2.21-1.79-4-4-4Z"/>
  <path class="cls-1" d="m47,27.74V9.99c0-.09-.01-.18-.03-.26,0-.03-.02-.05-.03-.08-.02-.05-.04-.11-.07-.16-.02-.03-.04-.05-.06-.08-.03-.05-.06-.09-.1-.13-.02-.02-.05-.04-.07-.06-.04-.04-.08-.07-.13-.1h0L30.5.13c-.3-.17-.68-.17-.98,0L13.52,9.13h-.01s-.09.06-.13.1c-.02.02-.05.04-.07.06-.04.04-.07.08-.1.13-.02.03-.04.05-.06.08-.03.05-.05.1-.07.16-.01.03-.02.05-.03.08-.03.08-.04.17-.05.26v17.74c0,.36.19.69.5.86l16,9.26h0c.06.03.12.06.19.08.02,0,.04.02.05.02.17.05.35.05.51,0,.02,0,.03-.02.05-.02.07-.02.13-.05.19-.08h0l16-9.26c.31-.18.5-.51.5-.86ZM30,2.14l5.52,3.1-13.96,7.85-5.52-3.1,13.96-7.85Zm-1,33.12l-14-8.1v-15.46l14,7.87v15.68Zm1-17.41l-6.4-3.6,13.95-7.85,6.4,3.6-13.96,7.85Zm15,9.31l-14,8.1v-15.68l14-7.87v15.46Z"/>
  <rect class="cls-1" x="41" y="24.99" width="2" height="2"/>
  <rect class="cls-1" x="37" y="26.99" width="2" height="2"/>
  <rect class="cls-1" x="33" y="28.99" width="2" height="2"/>
</svg>