<?xml version="1.0" encoding="UTF-8"?>
<svg id="Layer_1" data-name="Layer 1" xmlns="http://www.w3.org/2000/svg" viewBox="0 0 15.88 7.2">
  <defs>
    <style>
      .cls-1 {
        fill-rule: evenodd;
        stroke-width: 0px;
      }
    </style>
  </defs>
  <path class="cls-1" d="m4.12,0c-.14,0-.25.11-.25.25v.66c0,.14.11.25.25.25h0c.14,0,.25-.11.25-.25,0,0,0,0,0,0v-.41h6.8v5.17h-3.59c-.11-.59-.62-1.04-1.24-1.04s-1.12.45-1.23,1.04h-.98c-.14,0-.25.11-.25.25,0,.14.11.25.25.25h.99c.12.58.62,1.03,1.23,1.03s1.12-.45,1.24-1.03h4.71c.12.58.62,1.03,1.24,1.03s1.12-.45,1.23-1.03h.87c.14,0,.25-.11.25-.25v-2.43s-.01-.09-.04-.13l-1.34-2.15c-.05-.07-.12-.12-.21-.12h-2.63V.25c0-.14-.11-.25-.25-.25h-7.3Zm7.54,1.58h2.49l1.23,1.98v2.11h-.62c-.11-.59-.62-1.04-1.24-1.04s-1.12.45-1.24,1.04h-.62V1.58Zm-8.26.23c-.14,0-.25.11-.25.25h0c0,.14.11.25.25.25h2.47c.14,0,.25-.11.25-.25h0c0-.14-.11-.25-.25-.25h-2.47Zm-1.58,1.37c-.14,0-.25.11-.25.25,0,.14.11.25.25.25,0,0,0,0,0,0h3.26c.14,0,.25-.11.25-.25,0,0,0,0,0,0,0-.14-.11-.25-.25-.25,0,0,0,0,0,0H1.82ZM.25,4.55C.11,4.55,0,4.66,0,4.8h0c0,.14.11.25.25.25h4.05c.14,0,.25-.11.25-.25h0c0-.14-.11-.25-.25-.25,0,0,0,0,0,0H.25Zm6.07.57s.01,0,.02,0c.42,0,.76.35.76.79s-.34.79-.76.79-.76-.35-.76-.79.33-.78.74-.79Zm7.18,0s.01,0,.02,0c.42,0,.76.35.76.79s-.34.79-.76.79-.76-.35-.76-.79.33-.78.74-.79Z"/>
</svg>