<?xml version="1.0" encoding="UTF-8"?>
<svg id="Layer_1" data-name="Layer 1" xmlns="http://www.w3.org/2000/svg" viewBox="0 0 939.59 939.19">
  <defs>
    <style>
      .cls-1 {
        stroke-width: 0px;
      }
    </style>
  </defs>
  <path class="cls-1" d="m857.44,500.07c11.4,19.9,22.9,39.8,34.3,59.7,1.7,2.9,3.4,5.8,5.1,8.8.5.9,1,1.8,1.4,2.7,2.2,3.9-.8-3-.2-.3.3,1.1.7,2.1,1,3.2.1.3.8,3.9.8,3.9-.1-.9-.3-1.8-.4-2.7.1.9.1,1.8.2,2.6,0,1.3-.1,2.6-.1,4-.1,3.9,1.1-4.2,0-.1-.3,1.3-.6,2.6-1,3.8-.1.4-.3.8-.4,1.2-.8,2-.6,1.7.6-1.1.4.4-2.9,5.3-3.2,5.8-2.2,3.9,3-3-.1.2-.9,1-1.8,2-2.8,2.9-.3.3-3.7,3.1-1.1,1.1,2.5-1.9-2.1,1.2-2.6,1.6-2.2,1.3-4.4,2.5-6.6,3.8-20.6,11.9-41.4,23.5-61.9,35.7-19.2,11.3-30.6,31.5-30.8,53.8-.1,10.7,0,21.4,0,32.2v39.9c0,.8.2,10-.2,10,.1-.9.2-1.8.4-2.6-.1.9-.3,1.8-.5,2.6-.2.9-.4,1.7-.7,2.6-1.4,4.6,0,0,.2.1.1.1-1.6,3.2-1.8,3.5-.1.2-2,3.3-2.1,3.3-.2-.1,3.3-3.8.8-1-.9.9-1.7,1.9-2.6,2.8-.6.6-1.2,1.2-1.9,1.7-1.6,1.4-1.3,1.1,1-.8.2.3-5.2,3.1-5.6,3.3-3.9,2.2,4.3-1.2,0,0-1.3.3-2.5.8-3.8,1.1-.4.1-.9.2-1.3.3-2.2.4-1.8.3,1.3-.1,0,.1-2.9.2-2.7.2h-55.9c-9,0-18.2-.5-27.3.1-22.2,1.6-40.2,13.6-51.3,32.7-12.2,21.2-24.4,42.3-36.6,63.5-.5.9-1,1.8-1.6,2.7-.5.9-1.1,1.7-1.6,2.6-2.3,4,2.9-3-.2.3-.9,1-1.8,2-2.8,2.9-.3.3-.7.6-1,.9-1.7,1.4-1.4,1.2.9-.7,0,.4-3,1.9-3.3,2.1-.3.2-3.3,2-3.5,1.8-.3-.3,4.2-1.4,1.1-.6-1.3.3-2.5.8-3.8,1.1-.4.1-.9.2-1.3.3-2.2.4-1.7.3,1.4-.1.1.1-7.9.2-7.9.1.9.1,1.8.3,2.7.4-.9-.1-1.8-.3-2.6-.5-1.3-.3-2.6-.8-3.9-1.1-4.4-1.1,3.7,2.2-.3-.1-.8-.5-1.7-.9-2.5-1.3-.7-.4-1.3-.8-2-1.1-4.1-2.4-8.2-4.8-12.4-7.1-12.6-7.3-25.2-14.5-37.8-21.8-10.1-5.8-20.6-13.1-32.1-15.9-15.6-3.8-31.6-1.4-45.6,6.3-2.4,1.3-4.8,2.8-7.2,4.2-12,6.9-24.1,13.9-36.1,20.8-8.4,4.8-16.7,9.8-25.2,14.5-1.1.6-2.2,1.1-3.2,1.7-2.5,1.3,4.6-1.3.3-.2-1.3.3-2.6.8-3.9,1.1-.4.1-.9.2-1.3.3-2.2.4-1.8.3,1.4-.2,0,0-3,.2-3.3.2-1.1,0-2.2-.1-3.3-.1-2.2-.2-1.7-.1,1.4.2-.9-.1-1.7-.3-2.6-.5-1.3-.3-2.5-.7-3.8-1.1-3.8-1,1.3.4,1.1.6-.2.2-6.9-3.4-6.9-3.9.6.5,1.3,1,1.9,1.5-.7-.6-1.4-1.1-2-1.8-.7-.6-1.3-1.2-1.9-1.9-.3-.3-.6-.7-.9-1-1.4-1.6-1.2-1.4.6.8-.8-.4-1.8-2.8-2.3-3.5-11.8-19.8-23-40-34.5-59.9-7.5-13-15.7-25.5-29.8-32.4-13.5-6.6-26.9-6.9-41.3-6.9h-65.5c-.9,0-6,.5-2.8,0,2.8-.4-.1-.1-1.3-.3-1.3-.3-2.5-.8-3.8-1.1-4.3-1.1,3.8,2.2,0,0-.9-.5-1.9-1-2.8-1.5-.3-.2-2.8-1.7-2.7-1.7,0,0,3.5,3.1,0-.1-.9-.9-1.9-1.8-2.7-2.7-.6-.6-1.1-1.3-1.7-2,1.7,2.2,2.1,2.7,1.2,1.5-.2-.6-3.9-6-3.5-6.2.1-.1,1.6,4.5.2-.1-.3-1.1-.6-2.1-.8-3.2-.9-4.1-.1.7,0,.7-.2,0-.2-3.8-.2-4.1v-.6c-.1-10.5,0-20.9,0-31.4v-40.3c0-3.1.1-6.3-.1-9.4-1.1-14.9-6.8-28.8-17.2-39.6-8-8.3-18.9-13.5-28.7-19.2-12.5-7.2-25.1-14.5-37.6-21.7-4.3-2.5-8.7-5-13-7.5-.8-.5-1.7-.9-2.5-1.4-.7-.4-3.3-1.5-3.7-2.3,0,.1,3.6,3.3.8.6-1.3-1.3-2.5-2.5-3.8-3.8-3.1-3.2,2.1,3.7-.1-.2-.6-1.2-1.4-2.2-2-3.4-.2-.3-1.2-2.3-1.2-2.4.3.8.7,1.6,1,2.3-.3-.8-.6-1.6-.8-2.5-.4-1.3-.6-2.5-1-3.8-1.2-4.3,0,4.6,0,.1,0-.9-.1-1.8-.1-2.6,0-.9,0-1.8.1-2.6.2-2.2.1-1.8-.3,1.4-.1,0,1.7-6.6,1.8-7.2.7-2.7-2.4,4.3-.2.3.4-.8.9-1.7,1.3-2.5s.9-1.5,1.3-2.3c12.3-21.3,24.5-42.5,36.8-63.8,11.6-20.1,12.9-43.2,1.5-63.8-4.6-8.2-9.4-16.3-14.1-24.5-7-12.1-14-24.2-20.9-36.4-1.5-2.6-3-5.2-4.5-7.8-.5-.9-1.9-2.7-1.9-3.8.3.7.7,1.5,1,2.2-.3-.9-.6-1.7-.9-2.6-.4-1.3-.6-2.6-1-3.9-.9-3.8.4,1.3.2,1.4,0,0-.2-3.7-.2-4s.4-3.8.2-3.9c-.5,3.1-.5,3.6-.1,1.4.2-.9.4-1.7.6-2.6.2-.8.5-1.7.8-2.5,1.1-4.3-2.2,3.8,0-.1.6-1.2,1.2-2.3,1.9-3.5,1.1-1.9,3.2-2.8-.1-.3,1.6-1.2,3.2-3.4,4.6-4.9,3.2-3.2-3.6,2,.3-.2.8-.5,1.6-1,2.4-1.5,2.5-1.5,5.1-2.9,7.7-4.4,11.9-6.8,23.8-13.7,35.6-20.5,8.4-4.8,16.9-9.6,25.2-14.6,19.2-11.4,30.5-31.6,30.6-53.9.1-24.1,0-48.2,0-72.4v-6.2c0-.7,0-1.4.1-2.1.2-2.2.1-1.8-.2,1.3,0,0,1.6-7.7,2.1-7.7.4.1-2,3.9-.5,1.2.6-1.1,1.2-2.3,1.9-3.4,2.5-4-.1-.1-.2-.2s2.4-2.7,2.5-2.9c.7-.8,1.6-1.5,2.3-2.2,3.5-3.4-2.8,1.5.5-.4,1.1-.6,2.2-1.4,3.3-2,4.2-2.2,0-.1,0-.1-.1-.3,6.1-1.7,6.3-1.8,4.4-1.2-4.6,0,0,0,.5,0,2.3-.1,2.8-.1h55.4c9.2,0,18.6.6,27.8-.2,21.9-2,39.2-14.3,50.1-33.1,6.2-10.8,12.4-21.6,18.6-32.3,6-10.4,12-20.9,18-31.3.4-.7.8-1.5,1.3-2.2.3-.6,2.3-3,2.3-3.6-.5.6-1,1.2-1.4,1.9.6-.7,1.2-1.4,1.8-2,.7-.7,2.9-3.6,3.9-3.6-.6.5-1.3,1-1.9,1.5.5-.4,1.1-.8,1.7-1.1,1-.5,1.9-1.1,2.8-1.7.4-.2.8-.4,1.2-.6,2-.9,1.6-.8-1.2.5,0-.2,3.5-1.1,3.7-1.2,1-.3,2.2-.3,3.2-.7,2.5-1-5,.2-.8.1,1.3,0,2.6-.1,4-.1.9,0,1.8.1,2.6.2-3.1-.5-3.6-.5-1.4-.2.8.2,6.2,1,6.5,1.8-.7-.3-1.5-.6-2.2-1,.8.4,1.7.8,2.5,1.2.6.3.9.5,1.3.7.9.5,1.7,1,2.6,1.5,4.4,2.5,8.8,5.1,13.2,7.6,12.6,7.3,25.2,14.5,37.8,21.8,10.3,6,21.1,13.3,33,15.5,15.1,2.7,29.8.6,43.3-6.9,2.6-1.4,5.2-3,7.7-4.4,20.3-11.7,40.4-23.6,60.8-35,.4-.2.7-.4,1.3-.7.4-.2.8-.4,1.2-.6,2-.9,1.7-.8-1,.4.4-.9,5.4-1.6,6.5-1.8,4.5-1-4.6,0,0,.1,1.3,0,2.6-.1,4,0,.4,0,.9,0,1.3.1,2.2.2,1.7.1-1.4-.2.1.2,3.6.8,3.8.8.3.1,3.8,1,3.7,1.2-.8-.3-1.6-.7-2.4-1,.8.4,1.6.7,2.4,1.2,1.2.6,2.3,1.4,3.4,2,2.4,1.3,0-.7-.8-.8,1,.1,5.6,4.7,5.7,5.7-.5-.6-1-1.2-1.4-1.9.5.8,1.1,1.5,1.6,2.3.3.4.5.8.8,1.3,4.8,8,9.3,16.1,13.9,24.2,7,12.1,14,24.2,20.9,36.3,7.7,13.3,16.2,25.7,30.7,32.4,13.4,6.2,26.6,6.3,40.8,6.3h66c.9,0,1.8.1,2.7.2-3.1-.5-3.5-.5-1.3-.1.5.1,6.4,1.5,6.3,1.8,0,0-4.2-2.1,0,.1,1.1.6,2.2,1.3,3.3,2,3.8,2.1-3.1-3,.1,0,.6.6,1.3,1.1,1.9,1.7.9.9,1.8,1.9,2.6,2.8,1.4,1.6,1.1,1.3-.8-1,.5.7,1,1.4,1.4,2.2.7,1.1,1.2,2.3,1.9,3.4,1.5,2.7-.9-1.1-.5-1.2.5-.1,2.1,7.6,2.1,7.7-.1-.9-.2-1.8-.4-2.6.1.9.2,1.8.2,2.7v2.4c.1,24.1,0,48.2,0,72.4,0,18.7,5,37,19.4,49.9,8.3,7.5,18.5,12.5,28.2,18.1,12.4,7.2,24.8,14.3,37.3,21.5,4.1,2.4,8.3,4.8,12.4,7.2.7.4,1.4.8,2.1,1.2.4.2.7.4,1.2.7.4.3.8.5,1.2.8,1.8,1.3,1.5,1-.7-.7.9.1,5.6,4.7,5.7,5.7-.5-.6-1-1.3-1.5-1.9.5.7,1,1.5,1.5,2.2.7,1.1,1.3,2.3,1.9,3.5,2.2,3.9-1.1-4.2,0,.1.2.8.5,1.7.8,2.5.1.3.7,3.8.8,3.8-.1-.9-.2-1.8-.4-2.7.1.9.2,1.7.2,2.6.1,1.3-.1,2.6,0,4,.1,4.2,1-3.9.1,0-.3,1.3-.6,2.6-.9,3.9-.1.4-.3.9-.4,1.3-.8,2-.6,1.7.5-.9,0,1.1-1.4,2.9-1.9,3.8s-1,1.7-1.5,2.6c-6.2,10.7-12.3,21.4-18.5,32.2-5.9,10.3-11.9,20.6-17.8,30.9-11.2,19.6-12.7,42.6-1.3,63.4,5,9.2,18.5,12.9,27.4,7.2,9.3-6,12.6-17.5,7.2-27.4-.4-.7-2.4-5.6-.8-1.2-.6-1.6-1.1-3.1-1.5-4.7-.1-.5-.2-1.1-.4-1.6-.4-2.3-.4-2.1,0,.5-.6-1.1,0-3.7-.1-4.9,0-.8-.1-4.2-.2.5.1-1.5.6-3.3,1.1-4.8.2-.8,2.4-5.5.3-1.4.5-1.1,1-2,1.6-3,1.4-2.6,3-5.2,4.5-7.8,7.1-12.3,14.1-24.5,21.2-36.8,4.6-8,9.4-16,13.9-24.1,13.3-23.9,9.9-54.6-10-74-8.1-8-18.8-13.1-28.6-18.8-12.8-7.4-25.6-14.7-38.4-22.1-4.1-2.3-8.2-4.7-12.2-7-.6-.4-1.3-.7-1.9-1.1-.6-.4-1.9-1.2-2.5-1.6-4-2.4,2.7,2.9-.5-.4-.7-.7-1.4-1.3-2.1-2-.7-.7-1.3-1.4-1.9-2.1,1.6,2.2,1.8,2.4.6.6-.7-1.2-1.5-2.4-2.2-3.6-.2-.4-.4-.8-.6-1.3-.9-2-.8-1.7.3.9.8-1.4-2.8-5.3-1.9-6.9.1.8.2,1.6.3,2.5-.1-1-.2-1.9-.2-2.9v-58.6c0-11.2.7-22.6-1.3-33.7-4.8-27-29-46.4-55.6-48.7-9.4-.8-19-.2-28.4-.2h-54.5c-1,0-3.5.3-4.4-.2.8.1,1.6.2,2.5.3-.9-.2-1.9-.4-2.8-.6-.9-.2-1.8-.6-2.7-.8-4.5-1,3.5,2.1-.5-.1-1.2-.7-2.5-1.3-3.7-2.1-.8-.5-1.6-1-2.3-1.6,2.2,1.7,2.4,1.9.7.5-.8-.9-1.7-1.6-2.5-2.5-1.1-1.1-3.4-2.4-.1.2-1-.8-1.8-2.7-2.4-3.8-.6-.9-1.1-1.9-1.6-2.8-2.6-4.5-5.1-8.9-7.7-13.4-7.4-12.8-14.7-25.6-22.1-38.3-5.8-10-11.1-21.1-20-28.7-20.2-17.5-48.3-20.6-71.7-7.5-20.9,11.7-41.5,23.9-62.3,35.9-2.5,1.5-5.1,2.9-7.6,4.4-4.4,2.5,3.6-.7-1.3.6-1.6.4-3.2.8-4.8,1.3-4.8,1.3,2.6.2-.3,0-1.3-.1-2.8,0-4.1,0-4.9.3,3.6,1.2-1.2-.1-1.6-.4-3.2-.9-4.8-1.3-4.9-1.2,3.1,1.9-1.3-.6-.4-.2-1-.6-1.5-.8-8.5-4.7-16.9-9.7-25.3-14.6-12-6.9-24.1-13.9-36.1-20.8-2.4-1.4-4.8-2.8-7.3-4.2-12.9-7.2-26.9-9.4-41.4-7.1-19.3,3.1-34.3,16-43.8,32.5-6.3,11-12.7,22-19,33-5.9,10.3-11.9,20.6-17.8,30.9-.3.6-.7,1.2-1,1.8-.6,1-1.3,2-2,3.1-1.4,2.4,3.3-3.2,0-.1-1,1-2.1,2-3,3-1.7,1.4-1.4,1.3.7-.5-.8.6-1.5,1.1-2.3,1.6-1.2.8-2.5,1.4-3.7,2.1-2.4,1.3.3.6.9-.3-.4.6-3.4,1.1-4.1,1.3-.5.1-.9.2-1.4.3-2.2.4-1.9.4,1.1,0-1.3.8-4,.2-5.6.2-24.4.1-48.7,0-73.1,0-18.6,0-37.1,5.6-49.7,20.2-9.4,10.9-14.6,23.6-15.6,38-.2,3.1-.1,6.2-.1,9.2,0,24,.3,47.9,0,71.9v1.9c0,.5-.1,1-.1,1.5-.2,2.3-.2,1.9.2-1,.2.2-.6,2.8-.6,2.8-.2.7-.7,3.7-1.3,4.1.3-.7.6-1.4.9-2.1-.4.9-.8,1.7-1.2,2.5-.7,1.3-1.5,2.4-2.2,3.6-2.1,3.6,2.4-2.3-.4.4-1,1-2.1,2-3,3-3.2,3.3,3.5-1.9-.5.4-.9.5-1.8,1.1-2.7,1.7-1,.6-2.1,1.2-3.1,1.8-10.9,6.3-21.9,12.6-32.8,18.9-10.4,6-20.7,11.9-31.1,17.9C13.04,317.47.94,336.47.04,358.57c-.6,15.7,6.2,28.7,13.7,41.7,7.1,12.3,14.2,24.7,21.3,37,4.8,8.3,10,16.4,14.2,25-2-4.1.1.6.3,1.4.3,1.1.5,2.1.8,3.2,1.3,4.8.3-3.8.1,1.2-.1,1.2.5,3.8-.1,4.9.1-.7.2-1.4.3-2.1-.2,1.1-.4,2.1-.6,3.2-.4,1.6-.9,3.2-1.5,4.7,1.2-3.4-.1,0-.9,1.4-1.5,2.8-3.2,5.5-4.8,8.3-11.6,20.1-23.5,40-34.7,60.3-13.5,24.3-9.8,56.5,11.4,75.4,8.3,7.3,18.4,12.3,27.9,17.8,12.8,7.4,25.5,14.7,38.3,22.1,3.9,2.3,7.9,4.5,11.8,6.8.5.3,1.1.6,1.6.9,1,.6,2.9,1.4,3.7,2.4-2.9-3.7-.7-.4.3.6.7.6,2.7,2.2,2.9,3.1-1.6-2.2-1.8-2.4-.6-.6.4.6.8,1.2,1.1,1.8.6,1,1.1,2.1,1.7,3.1,2.2,4-1-4,.1.5.3,1.4.7,2.8,1.1,4.1,1.4,4.6-.1-4.4.1.4.1,1.5.1,3,.1,4.5v56.9c0,11.2-.7,22.6,1.5,33.7,5.5,27.2,30.9,46.6,58.1,47.5,23.2.8,46.6,0,69.8,0h11.8c.5,0,1,.1,1.5.1,2.3.2,1.9.2-1-.2.6-.3,3.5.8,4.2,1,1.3.4,5.4.7.6-.1,1.2.2,2.8,1.3,3.8,1.9.8.5,1.6,1,2.4,1.5,1.8,1.3,1.6,1.1-.6-.6.7.6,1.4,1.2,2.1,1.9.7.6,2.7,2.2,2.9,3.1-.5-.6-.9-1.2-1.4-1.8.6.8,1.1,1.6,1.6,2.4.3.5.6,1,.9,1.5.6,1,1.2,2.1,1.8,3.1,2.8,4.8,5.6,9.7,8.4,14.5,7.2,12.5,14.4,25,21.6,37.5,6.2,10.7,11.8,21.8,21.6,29.7,20.2,16.1,47.2,18.4,69.8,5.8,9.2-5.2,18.4-10.6,27.5-15.9,11.7-6.7,23.4-13.5,35.1-20.2,1.4-.8,2.9-1.7,4.3-2.5.4-.2.8-.4,1.1-.7.5-.3,4.8-2.4,2.3-1.3-2.8,1.2,2.2-.7,2.3-.7,1.5-.4,3.2-1,4.8-1.1-7.2.3,9.5.3,2.4,0,2.6.1,5.5,1.2,7.9,2.1-4.3-1.5.6.4,1.5,1,20.9,11.6,41.5,23.9,62.3,35.9,2.5,1.4,4.9,2.9,7.4,4.2,13,6.9,27,8.8,41.4,6.2,19.1-3.4,33.4-16.6,42.8-32.9,12.2-21.2,24.4-42.5,36.7-63.7.5-.9,1-1.8,1.5-2.6.3-.4.5-.8.8-1.2,1.3-1.8,1.1-1.6-.5.6.2-.9,2.3-2.5,2.9-3.1.2-.2,1.7-1.8,2.1-1.9-2.2,1.6-2.4,1.8-.6.6.8-.5,1.6-1,2.4-1.5,1-.6,2.6-1.7,3.8-1.9-4.8.8-.8.5.6.1.6-.2,3.7-1.3,4.2-1,0,0-5.2.3-1,.2,1.5,0,3-.1,4.5-.1h73.5c18.9,0,37.4-6.2,49.8-21.2,9.1-11,14.3-24,14.8-38.4.1-2.9,0-5.8,0-8.8v-41.3c0-10-.1-19.9,0-29.9,0-1,.1-2,.1-3.1,0-4.7-1.2,4.1.1-.4.4-1.3.8-2.8,1.1-4.1,1-4.4-1.5,2.6-.2.2.6-1,1-2.1,1.6-3.1.5-.9,1.4-3,2.3-3.6-1.7,2.2-1.9,2.4-.5.7.6-.7,1.3-1.4,2-2.1l1-1c1.7-1.4,1.4-1.3-.7.4,0,0,2.1-1.4,2.4-1.6.5-.3,1.1-.6,1.6-1,1.1-.7,2.3-1.3,3.4-2,21.3-12.2,42.5-24.4,63.8-36.7,19.4-11.2,32.3-31.8,31.8-54.6-.4-15.1-6.9-27.2-14.1-39.7-11.2-19.5-22.4-39-33.6-58.5-5.2-9.1-18.3-13-27.4-7.2-8.8,6-12.4,17.7-6.9,27.4Z"/>
  <path class="cls-1" d="m615.54,295.67c-10.6,10.6-21.2,21.2-31.8,31.8-25.4,25.4-50.9,50.9-76.3,76.3l-92.3,92.3c-26.6,26.6-53.2,53.2-79.8,79.8-12.9,12.9-26.2,25.6-38.9,38.9-.2.2-.4.4-.6.6-7.4,7.4-8,21,0,28.3s20.4,7.9,28.3,0c10.6-10.6,21.2-21.2,31.8-31.8,25.4-25.4,50.9-50.9,76.3-76.3l92.3-92.3c26.6-26.6,53.2-53.2,79.8-79.8,12.9-12.9,26.2-25.6,38.9-38.9.2-.2.4-.4.6-.6,7.4-7.4,8-21,0-28.3-8-7.4-20.4-8-28.3,0h0Z"/>
  <path class="cls-1" d="m379.64,379.37c-1,1-2.1,2-3.2,3-.5.5-1.1.9-1.7,1.4-1.7,1.5,1.1-1,1.2-.9-.8-.3-7.1,4.5-8.4,5.1-.6.3-1.3.6-1.9.9-1.9,1,1.5-.6,1.6-.6-1.3.2-2.7,1-3.9,1.4-3,1-6.1,1.7-9.3,2.3-3.8.7,3.7-.2-.1,0-1.4.1-2.7.2-4.1.2h-4.1c-.9,0-5.8-.6-2.8-.1,3.2.5-1.3-.3-2-.4-1.6-.3-3.1-.7-4.6-1.1-1.3-.4-2.6-.8-3.9-1.3-.6-.2-1.3-.5-1.9-.7-2.5-.9,3.3,1.7,1,.4-2.5-1.4-5-2.5-7.3-4.1-.6-.4-4.3-2.8-2-1.3s-.2-.2-.8-.7c-.7-.6-1.5-1.3-2.2-1.9-2.1-2-4-4.2-6-6.4-1.5-1.7,1,1.1.9,1.2.1-.2-1.1-1.6-1.2-1.7-.9-1.4-1.8-2.8-2.6-4.2-.8-1.4-1.5-2.9-2.2-4.3-1-1.9.6,1.5.6,1.6-.1-.6-.5-1.3-.7-1.9-1-2.8-1.9-5.6-2.5-8.5-.3-1.3-.3-2.8-.7-4,0,0,.4,4.2.3,1.9,0-.7-.1-1.4-.2-2-.2-3.2-.1-6.3.1-9.5.2-3.8-.8,3.7,0-.1.3-1.3.5-2.7.8-4,.7-3,2.5-6.1,2.9-9.1,0,.1-1.7,3.5-.6,1.6.3-.6.6-1.3.9-1.9.6-1.2,1.3-2.5,2-3.7s1.5-2.4,2.3-3.6c.3-.4,1.6-2.5.1-.3-1.5,2.3.3-.3.7-.8,2-2.4,4.3-4.6,6.6-6.7.5-.5,1.1-.9,1.7-1.4,1.7-1.5-1.1,1-1.2.9.4.2,3.6-2.4,4.1-2.7,1.2-.7,2.4-1.4,3.6-2.1.7-.4,4.5-2.5,2-1.1-2.4,1.4,1.7-.6,2.8-1,1.5-.5,3.1-.9,4.6-1.3,1.3-.3,2.7-.6,4-.9.6-.1,1.4-.1,2-.3,0,0-4.2.4-1.9.3,3.2-.1,6.3-.4,9.5-.2.8,0,5.2.6,2.1.1-3.2-.5,1.3.3,2,.4,2.9.6,5.8,1.4,8.6,2.4.6.2,1.3.5,1.9.7,2.2.8-1.7-.7-1.6-.7,1-.2,3.4,1.7,4.3,2.2,1.2.7,2.4,1.4,3.6,2.2.6.4,1.2.8,1.8,1.2,2.5,1.6-.5.2-.6-.6.3,1.4,5.3,4.7,6.4,5.9,1.2,1.2,2.2,2.5,3.3,3.8,1.5,1.7-1-1.1-.9-1.2-.1.2,1.4,2,1.6,2.3.9,1.4,1.7,2.8,2.5,4.2.5,1,1.3,3.7,2.2,4.3-.1,0-1.4-3.7-.7-1.6.3.9.7,1.7,1,2.6.6,1.7,1.1,3.5,1.6,5.3.4,1.5.7,3.1,1,4.7.7,3.4-.3-3.9,0,.8.2,3.2.2,6.3,0,9.5-.4,4.8.7-3.5-.1,1.4-.3,1.6-.6,3.1-1,4.7-.4,1.5-.9,3.1-1.4,4.6-.2.7-.5,1.3-.7,1.9-1,2.7-.2-.5.4-1-.9.6-1.7,3.4-2.2,4.3-.9,1.6-1.9,3.2-2.9,4.8-.1.2-1.3,1.6-1.2,1.7-.2-.4,2.6-3.1.5-.7-1.2,1.5-2.5,3-3.8,4.4-7.3,7.5-8,20.9,0,28.3,7.9,7.3,20.5,8,28.3,0,25.1-25.6,31.1-63.5,16-95.8-14.1-30.4-48.6-50.2-82-46.8-35,3.6-65.6,27.8-74.3,62.6-8.7,34.8,5.8,70.9,35.4,90.9,32.6,22,77.3,16.1,105-10.9,7.5-7.3,7.9-21,0-28.3-8.2-7.4-20.4-7.9-28.4,0Z"/>
  <path class="cls-1" d="m622.04,621.57c-1,1-2.1,2-3.2,3-.5.5-1.1.9-1.7,1.4-1.7,1.5,1.1-1,1.2-.9-.8-.3-7.1,4.5-8.4,5.1-.6.3-1.3.6-1.9.9-1.9,1,1.5-.6,1.6-.6-1.3.2-2.7,1-3.9,1.4-3,1-6.1,1.7-9.3,2.3-3.8.7,3.7-.2-.1,0-1.4.1-2.7.2-4.1.2h-4.1c-.9,0-5.8-.6-2.8-.1,3.2.5-1.3-.3-2-.4-1.6-.3-3.1-.7-4.6-1.1-1.3-.4-2.6-.8-3.9-1.3-.6-.2-1.3-.5-1.9-.7-2.5-.9,3.3,1.7,1,.4-2.5-1.4-5-2.5-7.3-4.1-.6-.4-4.3-2.8-2-1.3s-.2-.2-.8-.7c-.7-.6-1.5-1.3-2.2-1.9-2.1-2-4-4.2-6-6.4-1.5-1.7,1,1.1.9,1.2.1-.2-1.1-1.6-1.2-1.7-.9-1.4-1.8-2.8-2.6-4.2s-1.5-2.9-2.2-4.3c-1-1.9.6,1.5.6,1.6-.1-.6-.5-1.3-.7-1.9-1-2.8-1.9-5.6-2.5-8.5-.3-1.3-.3-2.8-.7-4,0,0,.4,4.2.3,1.9,0-.7-.1-1.4-.2-2-.2-3.2-.1-6.3.1-9.5.2-3.8-.8,3.7,0-.1.3-1.3.5-2.7.8-4,.7-3,2.5-6.1,2.9-9.1,0,.1-1.7,3.5-.6,1.6.3-.6.6-1.3.9-1.9.6-1.2,1.3-2.5,2-3.7s1.5-2.4,2.3-3.6c.3-.4,1.6-2.5.1-.3-1.5,2.3.3-.3.7-.8,2-2.4,4.3-4.6,6.6-6.7.5-.5,1.1-.9,1.7-1.4,1.7-1.5-1.1,1-1.2.9.4.2,3.6-2.4,4.1-2.7,1.2-.7,2.4-1.4,3.6-2.1.7-.4,4.5-2.5,2-1.1-2.4,1.4,1.7-.6,2.8-1,1.5-.5,3.1-.9,4.6-1.3,1.3-.3,2.7-.6,4-.9.6-.1,1.4-.1,2-.3,0,0-4.2.4-1.9.3,3.2-.1,6.3-.4,9.5-.2.8,0,5.2.6,2.1.1-3.2-.5,1.3.3,2,.4,2.9.6,5.8,1.4,8.6,2.4.6.2,1.3.5,1.9.7,2.2.8-1.7-.7-1.6-.7,1-.2,3.4,1.7,4.3,2.2,1.2.7,2.4,1.4,3.6,2.2.6.4,1.2.8,1.8,1.2,2.5,1.6-.5.2-.6-.6.3,1.4,5.3,4.7,6.4,5.9,1.2,1.2,2.2,2.5,3.3,3.8,1.5,1.7-1-1.1-.9-1.2-.1.2,1.4,2,1.6,2.3.9,1.4,1.7,2.8,2.5,4.2.5,1,1.3,3.7,2.2,4.3-.1,0-1.4-3.7-.7-1.6.3.9.7,1.7,1,2.6.6,1.7,1.1,3.5,1.6,5.3.4,1.5.7,3.1,1,4.7.7,3.4-.3-3.9,0,.8.2,3.2.2,6.3,0,9.5-.4,4.8.7-3.5-.1,1.4-.3,1.6-.6,3.1-1,4.7-.4,1.5-.9,3.1-1.4,4.6-.2.7-.5,1.3-.7,1.9-1,2.7-.2-.5.4-1-.9.6-1.7,3.4-2.2,4.3-.9,1.6-1.9,3.2-2.9,4.8-.1.2-1.3,1.6-1.2,1.7-.2-.4,2.6-3.1.5-.7-1.1,1.6-2.4,3-3.8,4.4-7.3,7.5-8,20.9,0,28.3,7.9,7.3,20.5,8,28.3,0,25.1-25.6,31.1-63.5,16-95.8-14.1-30.4-48.6-50.2-82-46.8-35,3.6-65.6,27.8-74.3,62.6s5.8,70.9,35.4,90.9c32.6,22,77.3,16.1,105-10.9,7.5-7.3,7.9-21,0-28.3-8.2-7.4-20.4-7.8-28.4,0Z"/>
</svg>