<?xml version="1.0" encoding="UTF-8"?>
<svg id="Layer_1" data-name="Layer 1" xmlns="http://www.w3.org/2000/svg" viewBox="0 0 62.05 78.38">
  <defs>
    <style>
      .cls-1 {
        stroke-width: 0px;
      }
    </style>
  </defs>
  <path class="cls-1" d="m39.84,58.63c.57,0,1.22.04,1.93.07.67.03,1.4.06,2.16,0l6.89,15.91h-14.85l-3.32-6.13c-.72-1.32-2.61-1.32-3.32,0l-3.32,6.13h-14.84l6.89-15.91c.78.08,1.53.04,2.21,0,1.42-.07,2.63-.14,3.32.05.7.19,1.72.85,2.91,1.61,1.19.77,2.62,1.69,4.52,1.69s3.34-.92,4.53-1.69c1.19-.76,2.21-1.43,2.9-1.61h0c.35-.1.82-.13,1.39-.12Zm-6.34-53.77c1.08.7,2.31,1.65,3.98,2.1,1.67.45,3.21.23,4.49.17,1.28-.07,2.2.02,2.68.3.48.28,1.02,1.04,1.6,2.17.58,1.14,1.17,2.59,2.39,3.81,1.23,1.22,2.67,1.81,3.8,2.39,1.14.58,1.9,1.12,2.18,1.6.28.48.36,1.4.29,2.68-.06,1.28-.28,2.82.17,4.49.45,1.67,1.41,2.9,2.1,3.97.69,1.07,1.08,1.93,1.08,2.48s-.39,1.4-1.08,2.47c-.7,1.07-1.66,2.3-2.1,3.97-.45,1.67-.23,3.22-.17,4.49.07,1.28-.02,2.2-.29,2.68-.28.48-1.04,1.02-2.18,1.6-1.14.58-2.57,1.17-3.8,2.4-1.22,1.22-1.81,2.67-2.39,3.81-.57,1.11-1.09,1.84-1.56,2.13l-.63.24c-.52.12-1.22.15-2.09.1-1.28-.07-2.81-.28-4.49.17-1.67.45-2.9,1.4-3.98,2.1-1.07.69-1.92,1.08-2.47,1.08s-1.4-.39-2.47-1.08c-1.07-.7-2.3-1.65-3.97-2.1-1.68-.45-3.22-.23-4.49-.17-.94.05-1.68.01-2.2-.12l-.5-.19c-.48-.29-1.01-1.03-1.59-2.16-.58-1.14-1.17-2.58-2.39-3.81-1.23-1.22-2.66-1.81-3.8-2.4-1.14-.58-1.9-1.12-2.18-1.6-.27-.48-.36-1.4-.3-2.68.07-1.28.28-2.82-.17-4.49-.45-1.67-1.41-2.9-2.1-3.97-.7-1.08-1.08-1.92-1.08-2.47s.38-1.4,1.08-2.48c.69-1.08,1.66-2.3,2.1-3.98.45-1.67.23-3.21.17-4.49-.06-1.28.02-2.2.3-2.68.28-.49,1.04-1.02,2.18-1.6,1.14-.58,2.58-1.17,3.8-2.39,1.22-1.22,1.81-2.67,2.39-3.81.58-1.14,1.12-1.89,1.6-2.17.48-.27,1.41-.36,2.69-.3,1.28.06,2.82.28,4.49-.17,1.67-.45,2.9-1.4,3.97-2.1,1.08-.69,1.92-1.08,2.47-1.08.56,0,1.4.39,2.47,1.08Zm-2.47-4.86c-1.9,0-3.33.92-4.52,1.69-1.19.77-2.21,1.44-2.91,1.62-.69.18-1.91.11-3.32.04-1.41-.07-3.13-.15-4.77.8-1.64.95-2.42,2.47-3.07,3.73-.65,1.26-1.2,2.35-1.71,2.86-.51.5-1.59,1.05-2.85,1.7-1.26.65-2.77,1.43-3.72,3.08-.95,1.64-.88,3.34-.8,4.76.07,1.41.14,2.62-.05,3.32-.19.69-.85,1.71-1.62,2.9-.77,1.19-1.68,2.63-1.68,4.53s.92,3.33,1.68,4.52c.77,1.19,1.44,2.21,1.62,2.91.19.69.11,1.9.05,3.32-.07,1.41-.15,3.11.8,4.75.95,1.65,2.46,2.44,3.72,3.08,1.26.65,2.34,1.19,2.85,1.7.5.51,1.06,1.59,1.71,2.85.51.99,1.1,2.14,2.14,3.05l-8.02,18.52c-.54,1.24.37,2.64,1.73,2.65h18.84c.7,0,1.33-.38,1.66-.99l2.2-4.06,2.2,4.06c.33.61.97.99,1.66.99h18.84c1.36,0,2.28-1.4,1.73-2.65l-8.01-18.48c1.06-.91,1.67-2.08,2.18-3.08.65-1.26,1.2-2.35,1.7-2.85.51-.51,1.6-1.06,2.86-1.7,1.26-.64,2.77-1.43,3.72-3.08.95-1.64.88-3.34.81-4.75-.07-1.42-.15-2.63.04-3.32.19-.7.86-1.72,1.62-2.91.77-1.19,1.68-2.62,1.68-4.52s-.91-3.34-1.68-4.53c-.77-1.19-1.44-2.21-1.62-2.9-.19-.69-.11-1.91-.04-3.32.07-1.42.14-3.12-.81-4.76-.95-1.65-2.46-2.43-3.72-3.08-1.26-.65-2.35-1.19-2.86-1.7-.5-.51-1.06-1.6-1.7-2.86-.65-1.26-1.43-2.78-3.07-3.73-1.64-.95-3.35-.86-4.77-.8-1.42.07-2.63.14-3.32-.04-.69-.19-1.72-.85-2.9-1.62-1.19-.77-2.63-1.69-4.53-1.69Z"/>
  <path class="cls-1" d="m40.72,19.4c-.49.01-.95.21-1.3.57l-19.51,19.4c-.77.73-.78,1.95-.03,2.7.74.75,1.96.74,2.7-.02l19.51-19.4c1.24-1.2.36-3.29-1.36-3.25Z"/>
  <path class="cls-1" d="m25.49,21.62c1.11,1.1,1.12,2.82.02,3.92-1.1,1.1-2.84,1.1-3.95,0-1.11-1.1-1.11-2.83-.01-3.92,1.1-1.09,2.83-1.09,3.94.02Zm2.68-2.67c-2.55-2.54-6.75-2.55-9.3-.02-2.56,2.54-2.55,6.71,0,9.26,2.55,2.54,6.75,2.55,9.31,0,2.55-2.54,2.54-6.71-.02-9.25h0Z"/>
  <path class="cls-1" d="m40.43,36.47c1.11,1.1,1.11,2.83,0,3.93-1.1,1.09-2.83,1.09-3.94,0-1.12-1.1-1.12-2.83-.02-3.93,1.1-1.1,2.84-1.1,3.95,0Zm2.68-2.66c-2.56-2.54-6.75-2.55-9.31,0-2.55,2.54-2.55,6.71,0,9.25,2.55,2.54,6.76,2.55,9.31.02,2.55-2.54,2.54-6.72-.01-9.26Z"/>
</svg>